<svg width="150" height="150" viewBox="0 0 150 150" fill="none" xmlns="http://www.w3.org/2000/svg">
<ellipse cx="74.5" cy="75" rx="52.5" ry="53" fill="#0033CC"/>
<path d="M75 6.15234C56.7405 6.15234 39.2288 13.4059 26.3174 26.3174C13.4059 39.2288 6.15234 56.7405 6.15234 75C6.15234 93.2595 13.4059 110.771 26.3174 123.683C39.2288 136.594 56.7405 143.848 75 143.848C84.0412 143.848 92.9939 142.067 101.347 138.607C109.7 135.147 117.29 130.076 123.683 123.683C130.076 117.29 135.147 109.7 138.607 101.347C142.067 92.9939 143.848 84.0412 143.848 75C143.848 65.9588 142.067 57.0061 138.607 48.6531C135.147 40.3002 130.076 32.7104 123.683 26.3174C117.29 19.9243 109.7 14.853 101.347 11.3931C92.9939 7.93314 84.0412 6.15234 75 6.15234ZM75 30.1758C99.7245 30.1758 119.824 50.2755 119.824 75C119.824 99.7245 99.7245 119.824 75 119.824C50.2755 119.824 30.1758 99.7245 30.1758 75C30.1758 50.2755 50.2755 30.1758 75 30.1758ZM75 35.4492C69.0185 35.4492 63.3524 36.7734 58.2744 39.1412C61.6573 48.774 67.4467 60.9375 75 60.9375C82.5653 60.9375 88.1619 48.7354 91.6266 39.0952C86.5737 36.7564 80.9426 35.4492 75 35.4492ZM103.931 48.0117C95.8119 54.206 86.0186 63.4775 88.3541 70.6661C90.6923 77.8626 104.03 79.4136 114.27 79.7294C114.454 78.1784 114.551 76.6011 114.551 75C114.551 64.558 110.521 55.0746 103.931 48.0117ZM46.0028 48.0829C39.452 55.1379 35.4492 64.5929 35.4492 75C35.4492 76.626 35.5488 78.2279 35.7387 79.8018C45.9437 79.5601 59.2878 77.8116 61.6207 70.6318C63.9568 63.4418 54.0973 54.3565 46.0028 48.0829ZM66.5657 60.8689C66.0347 60.8839 65.5205 61.0589 65.0906 61.3711C64.525 61.7822 64.1459 62.4011 64.0365 63.0917C63.9272 63.7823 64.0967 64.488 64.5076 65.0537C64.9186 65.6194 65.5374 65.9988 66.228 66.1083C66.9186 66.2178 67.6244 66.0485 68.1902 65.6376C68.4704 65.4341 68.7078 65.1774 68.8887 64.8821C69.0697 64.5869 69.1907 64.2589 69.2449 63.9169C69.2991 63.5748 69.2854 63.2255 69.2046 62.8888C69.1237 62.5521 68.9774 62.2345 68.7738 61.9544C68.5218 61.6076 68.1889 61.3275 67.8041 61.1383C67.4194 60.9492 66.9943 60.8567 66.5657 60.8689ZM83.4343 60.8689C83.3721 60.8671 83.3098 60.8675 83.2477 60.8701C82.8508 60.8869 82.4629 60.9931 82.1129 61.1808C81.7628 61.3685 81.4597 61.6328 81.2262 61.9541C81.0226 62.2343 80.8762 62.5518 80.7953 62.8885C80.7145 63.2253 80.7007 63.5747 80.7549 63.9167C80.8091 64.2588 80.9302 64.5868 81.1112 64.8821C81.2922 65.1774 81.5295 65.4341 81.8098 65.6376C82.3755 66.0485 83.0813 66.2178 83.7719 66.1084C84.4625 65.999 85.0814 65.6197 85.4924 65.054C85.9033 64.4883 86.0728 63.7826 85.9635 63.092C85.8541 62.4014 85.475 61.7825 84.9094 61.3714C84.4795 61.0591 83.9654 60.884 83.4343 60.8689ZM75 65.625C72.5136 65.625 70.129 66.6127 68.3709 68.3709C66.6127 70.129 65.625 72.5136 65.625 75C65.625 77.4864 66.6127 79.871 68.3709 81.6291C70.129 83.3873 72.5136 84.375 75 84.375C77.4864 84.375 79.871 83.3873 81.6291 81.6291C83.3873 79.871 84.375 77.4864 84.375 75C84.375 72.5136 83.3873 70.129 81.6291 68.3709C79.871 66.6127 77.4864 65.625 75 65.625ZM61.4364 76.7686C61.1725 76.7725 60.9105 76.8159 60.6595 76.8976C60.3301 77.0045 60.025 77.1753 59.7617 77.4002C59.4983 77.625 59.2818 77.8996 59.1246 78.2081C58.9673 78.5166 58.8724 78.8531 58.8452 79.1983C58.818 79.5436 58.8591 79.8908 58.9661 80.2201C59.1822 80.8851 59.6537 81.4371 60.2767 81.7545C60.8997 82.072 61.6233 82.1289 62.2884 81.9129C62.6177 81.8059 62.9228 81.6352 63.1861 81.4103C63.4494 81.1855 63.6659 80.911 63.8231 80.6025C63.9804 80.294 64.0753 79.9575 64.1025 79.6123C64.1297 79.2671 64.0887 78.92 63.9817 78.5906C63.8077 78.0549 63.4667 77.5889 63.0087 77.2611C62.5507 76.9332 61.9997 76.7606 61.4364 76.7686ZM88.6403 76.771C88.0645 76.746 87.4963 76.9103 87.0228 77.2389C86.5492 77.5675 86.1964 78.0422 86.0183 78.5903C85.9113 78.9197 85.8703 79.2668 85.8975 79.612C85.9247 79.9572 86.0196 80.2937 86.1769 80.6022C86.3341 80.9107 86.5506 81.1852 86.8139 81.41C87.0772 81.6349 87.3823 81.8056 87.7116 81.9126C88.3766 82.1287 89.1002 82.0717 89.7232 81.7543C90.3463 81.4369 90.8177 80.8851 91.0339 80.2201C91.1409 79.8908 91.182 79.5436 91.1548 79.1983C91.1276 78.8531 91.0327 78.5166 90.8754 78.2081C90.7182 77.8996 90.5017 77.625 90.2383 77.4002C89.975 77.1753 89.6699 77.0045 89.3405 76.8976C89.1139 76.8239 88.8784 76.7814 88.6403 76.771ZM61.6453 84.89C55.3201 84.9205 46.9266 89.8213 40.4273 94.2439C46.0022 104.254 55.7965 111.577 67.4224 113.825C70.3491 104.043 72.8188 90.7925 66.7058 86.3514C65.2837 85.3181 63.5602 84.8807 61.6453 84.89ZM88.3102 84.8959C86.3824 84.8959 84.6504 85.34 83.2283 86.373C77.1067 90.8206 79.7528 103.982 82.6166 113.818C94.2437 111.558 104.035 104.22 109.599 94.1968C103.152 89.7366 94.6767 84.8962 88.3102 84.8959ZM75 86.5957C74.3007 86.5957 73.63 86.8735 73.1356 87.368C72.6411 87.8625 72.3633 88.5331 72.3633 89.2324C72.3633 89.9317 72.6411 90.6024 73.1356 91.0969C73.63 91.5913 74.3007 91.8691 75 91.8691C75.6993 91.8691 76.37 91.5913 76.8644 91.0969C77.3589 90.6024 77.6367 89.9317 77.6367 89.2324C77.6367 88.5331 77.3589 87.8625 76.8644 87.368C76.37 86.8735 75.6993 86.5957 75 86.5957Z" fill="#0CDAC3"/>
</svg>
