<svg width="50" height="40" viewBox="0 0 50 40" fill="none" xmlns="http://www.w3.org/2000/svg">
<path d="M49.1967 4.74844C47.3549 5.56323 45.4018 6.09849 43.4019 6.33652C45.5091 5.07459 47.0856 3.08973 47.8379 0.751684C45.8589 1.92947 43.6891 2.75489 41.4301 3.20138C39.9111 1.57608 37.8976 0.498178 35.7028 0.13524C33.5079 -0.227698 31.2547 0.144668 29.2933 1.19445C27.3319 2.24423 25.7723 3.9126 24.8569 5.9402C23.9415 7.96781 23.7217 10.241 24.2315 12.4065C20.2177 12.2056 16.291 11.1629 12.7064 9.34582C9.12185 7.52878 5.9595 4.97813 3.42475 1.85948C2.52763 3.40038 2.05619 5.15204 2.05871 6.93507C2.05871 10.4346 3.84229 13.5263 6.54782 15.3365C4.94529 15.2859 3.37805 14.8531 1.97666 14.0742V14.1973C1.97658 16.5284 2.78284 18.7878 4.25869 20.5923C5.73454 22.3967 7.78912 23.6351 10.0739 24.0975C8.58636 24.501 7.0264 24.5604 5.51243 24.2712C6.15665 26.2778 7.41237 28.0326 9.10371 29.2898C10.795 30.5471 12.8373 31.2438 14.9444 31.2824C12.8503 32.9271 10.4526 34.1429 7.8883 34.8601C5.32401 35.5774 2.64348 35.7821 0 35.4626C4.61394 38.4297 9.98489 40.005 15.4705 40C34.04 40 44.1912 24.6188 44.1912 11.2794C44.1912 10.8449 44.1815 10.4057 44.1622 9.97366C46.1374 8.54573 47.8423 6.77472 49.1967 4.74844Z" fill="#0CDAC3"/>
</svg>
