<svg width="60" height="60" viewBox="0 0 60 60" fill="none" xmlns="http://www.w3.org/2000/svg">
<path d="M23.75 27.5H26.25C27 27.5 27.5 27 27.5 26.25V22.5H47.5V26.25C47.5 27 48 27.5 48.75 27.5H51.25C52 27.5 52.5 27 52.5 26.25V15L49 4.25C48.75 3.25 47.75 2.5 46.75 2.5H28.5C27.5 2.5 26.5 3.25 26.25 4.25L22.5 15V26.25C22.5 27 23 27.5 23.75 27.5ZM28.25 5H46.5L48.75 12.5H26L28.25 5ZM30 57.5H25C25 55.5 20.25 53.75 16.5 52.25C11.25 50.25 5 48 5 42.5C5 36.75 10.75 35.25 15.5 33.75C19.75 32.75 22.5 31.75 22.5 30H27.5C27.5 35.75 21.75 37.25 17 38.75C12.75 39.75 10 40.75 10 42.5C10 44.5 14.75 46.25 18.5 47.75C23.75 49.75 30 52 30 57.5ZM55 57.5H50C50 55.5 45.25 53.75 41.5 52.25C36.25 50.25 30 48 30 42.5C30 36.75 35.75 35.25 40.5 33.75C44.5 32.5 47.5 31.75 47.5 30H52.5C52.5 35.75 46.75 37.25 42 38.75C38 39.75 35 40.75 35 42.5C35 44.5 39.75 46.25 43.5 47.75C48.75 49.75 55 52 55 57.5Z" fill="#0033CC"/>
</svg>
