<svg width="54" height="50" viewBox="0 0 54 50" fill="none" xmlns="http://www.w3.org/2000/svg">
<path d="M30.4996 0.108623C28.3967 0.116357 26.3069 0.323545 24.302 0.664795C14.1387 2.39448 8.40994 6.93046 5.31877 13.3004C8.97678 13.0152 12.5846 12.7117 16.096 12.7335C18.9219 12.751 21.6854 12.9792 24.3624 13.5971C26.1378 14.0073 27.2514 15.548 27.5976 17.3161C27.9438 19.0842 27.6982 21.1739 27.0053 23.3575L26.9716 23.4634L26.9168 23.5602C26.0072 25.1586 24.0735 26.431 21.6088 27.7782C19.1441 29.1255 16.1367 30.4376 13.1396 31.5784C10.1427 32.7192 7.16166 33.6854 4.75194 34.3249C3.90186 34.5505 3.12889 34.7327 2.43924 34.8707C2.70584 38.5187 3.20822 42.298 3.84643 46.1183C20.2665 41.6359 35.8972 36.7564 51.1328 31.6745C54.172 26.4647 54.6398 21.5439 53.1211 16.8228C50.4969 8.66601 45.9844 4.27815 40.7912 2.03753C37.5456 0.637138 34.0045 0.0957322 30.4998 0.108623H30.4996ZM11.256 15.0006C10.1942 15.0603 9.11553 15.136 8.02955 15.2157L2.95041 32.5999C3.34697 32.5073 3.76322 32.405 4.21065 32.2863C4.70688 32.1536 5.20145 32.0148 5.69424 31.8698C6.86869 28.2288 10.7685 16.4695 11.256 15.0006ZM5.7833 15.3828C4.50971 15.4796 3.2258 15.5767 1.9269 15.6606C1.8894 15.7127 1.84322 15.7716 1.77244 15.9262C1.58729 16.3305 1.37694 17.0299 1.19682 17.8861C0.836466 19.5984 0.567521 21.9557 0.411075 24.317C0.254864 26.6783 0.208341 29.0558 0.271271 30.8305C0.302677 31.7178 0.363849 32.46 0.440255 32.9352C0.44588 32.971 0.449396 32.9717 0.45549 33.0043C0.509396 33.0032 0.576544 32.9992 0.636662 32.9968L5.7833 15.3828ZM22.25 15.4453C20.4224 15.4453 18.8914 16.9198 18.8914 18.7444C18.8914 20.569 20.4224 22.0438 22.25 22.0438C24.0777 22.0438 25.6086 20.5691 25.6086 18.7444C25.6086 16.9198 24.0777 15.4453 22.25 15.4453ZM22.25 17.5547C22.9672 17.5547 23.4992 18.0899 23.4992 18.7444C23.4992 19.399 22.9672 19.9344 22.25 19.9344C21.5328 19.9344 21.0008 19.3989 21.0008 18.7444C21.0008 18.0899 21.5328 17.5547 22.25 17.5547ZM49.2254 34.531C34.7168 39.3342 19.8225 43.9488 4.20947 48.2062C4.25787 48.4778 4.3044 48.7488 4.35385 49.0205C21.6515 45.8974 34.3508 40.9386 47.8726 36.2278C48.3405 35.6758 48.7917 35.11 49.2256 34.5309L49.2254 34.531Z" fill="#0033CC"/>
</svg>
