<svg width="150" height="155" viewBox="0 0 150 155" fill="none" xmlns="http://www.w3.org/2000/svg">
<path fill-rule="evenodd" clip-rule="evenodd" d="M38.775 14.8145C35.0801 15.709 31.7005 17.5975 29.0021 20.2753C26.3037 22.9531 24.3894 26.3183 23.4667 30.0062L14.05 67.6978C9.94938 69.1113 6.39189 71.7688 3.87338 75.3001C1.35487 78.8314 0.00083626 83.0605 0 87.3978V112.398C0 117.923 2.19493 123.222 6.10194 127.129C10.0089 131.036 15.308 133.231 20.8333 133.231H129.167C134.692 133.231 139.991 131.036 143.898 127.129C147.805 123.222 150 117.923 150 112.398V87.3978C150 83.0615 148.647 78.8332 146.13 75.302C143.613 71.7708 140.057 69.1127 135.958 67.6978L126.533 30.0062C125.611 26.3193 123.698 22.9549 121.001 20.2771C118.305 17.5994 114.927 15.7104 111.233 14.8145C99.3735 11.9132 87.2095 10.4389 75 10.4229C62.9167 10.4229 50.8417 11.8895 38.775 14.8145ZM20.8333 83.2312C22.6922 83.2307 24.4975 82.6087 25.9622 81.4641C27.4269 80.3195 28.4668 78.7181 28.9167 76.9145L39.6333 34.0479C39.8177 33.309 40.2011 32.6349 40.7418 32.0986C41.2824 31.5624 41.9597 31.1845 42.7 31.0062C53.2724 28.42 64.1158 27.1051 75 27.0895C85.8842 27.1042 96.7277 28.4191 107.3 31.0062C108.039 31.1859 108.714 31.5643 109.253 32.1005C109.792 32.6366 110.175 33.3101 110.358 34.0479L121.075 76.9145C121.525 78.7181 122.565 80.3195 124.029 81.4641C125.494 82.6087 127.299 83.2307 129.158 83.2312C130.263 83.2312 131.323 83.6702 132.105 84.4516C132.886 85.233 133.325 86.2928 133.325 87.3978V112.398C133.325 113.503 132.886 114.563 132.105 115.344C131.323 116.126 130.263 116.565 129.158 116.565H20.825C19.7199 116.565 18.6601 116.126 17.8787 115.344C17.0973 114.563 16.6583 113.503 16.6583 112.398V87.3978C16.6583 86.2928 17.0973 85.233 17.8787 84.4516C18.6601 83.6702 19.7283 83.2312 20.8333 83.2312Z" fill="#0033CC"/>
<path d="M129.167 99.8982C129.167 103.213 127.85 106.393 125.505 108.737C123.161 111.081 119.982 112.398 116.667 112.398C113.351 112.398 110.172 111.081 107.828 108.737C105.484 106.393 104.167 103.213 104.167 99.8982C104.167 96.583 105.484 93.4036 107.828 91.0594C110.172 88.7152 113.351 87.3982 116.667 87.3982C119.982 87.3982 123.161 88.7152 125.505 91.0594C127.85 93.4036 129.167 96.583 129.167 99.8982ZM45.8333 99.8982C45.8333 103.213 44.5164 106.393 42.1722 108.737C39.828 111.081 36.6485 112.398 33.3333 112.398C30.0181 112.398 26.8387 111.081 24.4945 108.737C22.1503 106.393 20.8333 103.213 20.8333 99.8982C20.8333 96.583 22.1503 93.4036 24.4945 91.0594C26.8387 88.7152 30.0181 87.3982 33.3333 87.3982C36.6485 87.3982 39.828 88.7152 42.1722 91.0594C44.5164 93.4036 45.8333 96.583 45.8333 99.8982ZM25 120.732C28.3152 120.732 31.4946 122.048 33.8388 124.393C36.183 126.737 37.5 129.916 37.5 133.232V141.565C37.5 144.88 36.183 148.059 33.8388 150.404C31.4946 152.748 28.3152 154.065 25 154.065C21.6848 154.065 18.5054 152.748 16.1612 150.404C13.817 148.059 12.5 144.88 12.5 141.565V133.232C12.5 129.916 13.817 126.737 16.1612 124.393C18.5054 122.048 21.6848 120.732 25 120.732ZM125 120.732C128.315 120.732 131.495 122.048 133.839 124.393C136.183 126.737 137.5 129.916 137.5 133.232V141.565C137.5 144.88 136.183 148.059 133.839 150.404C131.495 152.748 128.315 154.065 125 154.065C121.685 154.065 118.505 152.748 116.161 150.404C113.817 148.059 112.5 144.88 112.5 141.565V133.232C112.5 129.916 113.817 126.737 116.161 124.393C118.505 122.048 121.685 120.732 125 120.732Z" fill="#0033CC"/>
<path fill-rule="evenodd" clip-rule="evenodd" d="M93.2924 33.2317H56.709C52.8958 33.2306 49.1975 34.537 46.2312 36.9332C43.2648 39.3293 41.2098 42.6702 40.409 46.3984L36.834 63.065C36.3119 65.4958 36.3403 68.0126 36.917 70.431C37.4937 72.8494 38.6041 75.1082 40.167 77.0418C41.7299 78.9754 43.7055 80.5348 45.9492 81.6059C48.1929 82.6769 50.6478 83.2324 53.134 83.2317H96.8674C99.3534 83.2327 101.808 82.6773 104.052 81.6062C106.295 80.5351 108.27 78.9755 109.833 77.0416C111.395 75.1078 112.504 72.8489 113.08 70.4304C113.656 68.0119 113.683 65.4953 113.159 63.065L109.584 46.3984C108.784 42.6716 106.73 39.3318 103.765 36.9358C100.801 34.5398 97.1042 33.2325 93.2924 33.2317ZM53.1257 66.565L56.709 49.8984H93.2924L96.8674 66.565H53.1257Z" fill="#0033CC"/>
<path d="M2.44083 14.1226C0.922843 12.5509 0.0828907 10.4459 0.101878 8.26092C0.120864 6.07595 0.997271 3.98584 2.54234 2.44078C4.08741 0.895709 6.17751 0.0193018 8.36248 0.000315022C10.5475 -0.0186718 12.6525 0.821281 14.2242 2.33926L147.557 135.673C149.075 137.244 149.915 139.349 149.896 141.534C149.877 143.719 149.001 145.809 147.456 147.354C145.911 148.899 143.821 149.776 141.636 149.795C139.451 149.814 137.346 148.974 135.774 147.456L2.44083 14.1226Z" fill="#0033CC"/>
</svg>
