<svg width="300" height="157" viewBox="0 0 300 157" fill="none" xmlns="http://www.w3.org/2000/svg">
<ellipse cx="224.5" cy="82" rx="52.5" ry="53" fill="#0033CC"/>
<path d="M225 13.1523C206.74 13.1523 189.229 20.4059 176.317 33.3174C163.406 46.2288 156.152 63.7405 156.152 82C156.152 100.26 163.406 117.771 176.317 130.683C189.229 143.594 206.74 150.848 225 150.848C234.041 150.848 242.994 149.067 251.347 145.607C259.7 142.147 267.29 137.076 273.683 130.683C280.076 124.29 285.147 116.7 288.607 108.347C292.067 99.9939 293.848 91.0412 293.848 82C293.848 72.9588 292.067 64.0061 288.607 55.6531C285.147 47.3002 280.076 39.7104 273.683 33.3174C267.29 26.9243 259.7 21.853 251.347 18.3931C242.994 14.9331 234.041 13.1523 225 13.1523ZM225 37.1758C249.725 37.1758 269.824 57.2755 269.824 82C269.824 106.725 249.725 126.824 225 126.824C200.275 126.824 180.176 106.725 180.176 82C180.176 57.2755 200.275 37.1758 225 37.1758ZM225 42.4492C219.018 42.4492 213.352 43.7734 208.274 46.1412C211.657 55.774 217.447 67.9375 225 67.9375C232.565 67.9375 238.162 55.7354 241.627 46.0952C236.574 43.7564 230.943 42.4492 225 42.4492ZM253.931 55.0117C245.812 61.206 236.019 70.4775 238.354 77.6661C240.692 84.8626 254.03 86.4136 264.27 86.7294C264.454 85.1784 264.551 83.6011 264.551 82C264.551 71.558 260.521 62.0746 253.931 55.0117ZM196.003 55.0829C189.452 62.1379 185.449 71.5929 185.449 82C185.449 83.626 185.549 85.2279 185.739 86.8018C195.944 86.5601 209.288 84.8116 211.621 77.6318C213.957 70.4418 204.097 61.3565 196.003 55.0829ZM216.566 67.8689C216.035 67.8839 215.521 68.0589 215.091 68.3711C214.525 68.7822 214.146 69.4011 214.037 70.0917C213.927 70.7823 214.097 71.488 214.508 72.0537C214.919 72.6194 215.537 72.9988 216.228 73.1083C216.919 73.2178 217.624 73.0485 218.19 72.6376C218.47 72.4341 218.708 72.1774 218.889 71.8821C219.07 71.5869 219.191 71.2589 219.245 70.9169C219.299 70.5748 219.285 70.2255 219.205 69.8888C219.124 69.5521 218.977 69.2345 218.774 68.9544C218.522 68.6076 218.189 68.3275 217.804 68.1383C217.419 67.9492 216.994 67.8567 216.566 67.8689ZM233.434 67.8689C233.372 67.8671 233.31 67.8675 233.248 67.8701C232.851 67.8869 232.463 67.9931 232.113 68.1808C231.763 68.3685 231.46 68.6328 231.226 68.9541C231.023 69.2343 230.876 69.5518 230.795 69.8885C230.714 70.2253 230.701 70.5747 230.755 70.9167C230.809 71.2588 230.93 71.5868 231.111 71.8821C231.292 72.1774 231.53 72.4341 231.81 72.6376C232.376 73.0485 233.081 73.2178 233.772 73.1084C234.463 72.999 235.081 72.6197 235.492 72.054C235.903 71.4883 236.073 70.7826 235.963 70.092C235.854 69.4014 235.475 68.7825 234.909 68.3714C234.48 68.0591 233.965 67.884 233.434 67.8689ZM225 72.625C222.514 72.625 220.129 73.6127 218.371 75.3709C216.613 77.129 215.625 79.5136 215.625 82C215.625 84.4864 216.613 86.871 218.371 88.6291C220.129 90.3873 222.514 91.375 225 91.375C227.486 91.375 229.871 90.3873 231.629 88.6291C233.387 86.871 234.375 84.4864 234.375 82C234.375 79.5136 233.387 77.129 231.629 75.3709C229.871 73.6127 227.486 72.625 225 72.625ZM211.436 83.7686C211.172 83.7725 210.911 83.8159 210.659 83.8976C210.33 84.0045 210.025 84.1753 209.762 84.4002C209.498 84.625 209.282 84.8996 209.125 85.2081C208.967 85.5166 208.872 85.8531 208.845 86.1983C208.818 86.5436 208.859 86.8908 208.966 87.2201C209.182 87.8851 209.654 88.4371 210.277 88.7545C210.9 89.072 211.623 89.1289 212.288 88.9129C212.618 88.8059 212.923 88.6352 213.186 88.4103C213.449 88.1855 213.666 87.911 213.823 87.6025C213.98 87.294 214.075 86.9575 214.103 86.6123C214.13 86.2671 214.089 85.92 213.982 85.5906C213.808 85.0549 213.467 84.5889 213.009 84.2611C212.551 83.9332 212 83.7606 211.436 83.7686ZM238.64 83.771C238.064 83.746 237.496 83.9103 237.023 84.2389C236.549 84.5675 236.196 85.0422 236.018 85.5903C235.911 85.9197 235.87 86.2668 235.897 86.612C235.925 86.9572 236.02 87.2937 236.177 87.6022C236.334 87.9107 236.551 88.1852 236.814 88.41C237.077 88.6349 237.382 88.8056 237.712 88.9126C238.377 89.1287 239.1 89.0717 239.723 88.7543C240.346 88.4369 240.818 87.8851 241.034 87.2201C241.141 86.8908 241.182 86.5436 241.155 86.1983C241.128 85.8531 241.033 85.5166 240.875 85.2081C240.718 84.8996 240.502 84.625 240.238 84.4002C239.975 84.1753 239.67 84.0045 239.341 83.8976C239.114 83.8239 238.878 83.7814 238.64 83.771ZM211.645 91.89C205.32 91.9205 196.927 96.8213 190.427 101.244C196.002 111.254 205.796 118.577 217.422 120.825C220.349 111.043 222.819 97.7925 216.706 93.3514C215.284 92.3181 213.56 91.8807 211.645 91.89ZM238.31 91.8959C236.382 91.8959 234.65 92.34 233.228 93.373C227.107 97.8206 229.753 110.982 232.617 120.818C244.244 118.558 254.035 111.22 259.599 101.197C253.152 96.7366 244.677 91.8962 238.31 91.8959ZM225 93.5957C224.301 93.5957 223.63 93.8735 223.136 94.368C222.641 94.8625 222.363 95.5331 222.363 96.2324C222.363 96.9317 222.641 97.6024 223.136 98.0969C223.63 98.5913 224.301 98.8691 225 98.8691C225.699 98.8691 226.37 98.5913 226.864 98.0969C227.359 97.6024 227.637 96.9317 227.637 96.2324C227.637 95.5331 227.359 94.8625 226.864 94.368C226.37 93.8735 225.699 93.5957 225 93.5957Z" fill="#0CDAC3"/>
<path d="M5.11364 62V15.4545H34.2955V21.5H12.1364V35.6818H32.7727V41.7045H12.1364V55.9545H34.5682V62H5.11364ZM54.5698 62.7727C52.3577 62.7727 50.3577 62.3636 48.5698 61.5455C46.7819 60.7121 45.3652 59.5076 44.3198 57.9318C43.2895 56.3561 42.7743 54.4242 42.7743 52.1364C42.7743 50.1667 43.1531 48.5455 43.9107 47.2727C44.6683 46 45.691 44.9924 46.9789 44.25C48.2667 43.5076 49.7061 42.947 51.297 42.5682C52.888 42.1894 54.5092 41.9015 56.1607 41.7045C58.2516 41.4621 59.9486 41.2652 61.2516 41.1136C62.5546 40.947 63.5016 40.6818 64.0925 40.3182C64.6834 39.9545 64.9789 39.3636 64.9789 38.5455V38.3864C64.9789 36.4015 64.4183 34.8636 63.297 33.7727C62.191 32.6818 60.5395 32.1364 58.3425 32.1364C56.0546 32.1364 54.2516 32.6439 52.9334 33.6591C51.6304 34.6591 50.7289 35.7727 50.2289 37L43.8425 35.5455C44.6001 33.4242 45.7061 31.7121 47.1607 30.4091C48.6304 29.0909 50.3198 28.1364 52.2289 27.5455C54.138 26.9394 56.1455 26.6364 58.2516 26.6364C59.6455 26.6364 61.1228 26.803 62.6834 27.1364C64.2592 27.4545 65.7289 28.0455 67.0925 28.9091C68.4713 29.7727 69.6001 31.0076 70.4789 32.6136C71.3577 34.2045 71.797 36.2727 71.797 38.8182V62H65.1607V57.2273H64.888C64.4486 58.1061 63.7895 58.9697 62.9107 59.8182C62.0319 60.6667 60.9031 61.3712 59.5243 61.9318C58.1455 62.4924 56.494 62.7727 54.5698 62.7727ZM56.047 57.3182C57.9258 57.3182 59.5319 56.947 60.8652 56.2045C62.2137 55.4621 63.2364 54.4924 63.9334 53.2955C64.6455 52.0833 65.0016 50.7879 65.0016 49.4091V44.9091C64.7592 45.1515 64.2895 45.3788 63.5925 45.5909C62.9107 45.7879 62.1304 45.9621 61.2516 46.1136C60.3728 46.25 59.5167 46.3788 58.6834 46.5C57.8501 46.6061 57.1531 46.697 56.5925 46.7727C55.2743 46.9394 54.0698 47.2197 52.9789 47.6136C51.9031 48.0076 51.0395 48.5758 50.388 49.3182C49.7516 50.0455 49.4334 51.0152 49.4334 52.2273C49.4334 53.9091 50.0546 55.1818 51.297 56.0455C52.5395 56.8939 54.1228 57.3182 56.047 57.3182ZM108.287 35.6136L102.128 36.7045C101.871 35.9167 101.462 35.1667 100.901 34.4545C100.355 33.7424 99.613 33.1591 98.6736 32.7045C97.7342 32.25 96.56 32.0227 95.1509 32.0227C93.2267 32.0227 91.6206 32.4545 90.3327 33.3182C89.0448 34.1667 88.4009 35.2652 88.4009 36.6136C88.4009 37.7803 88.8327 38.7197 89.6964 39.4318C90.56 40.1439 91.9539 40.7273 93.8782 41.1818L99.4236 42.4545C102.636 43.197 105.03 44.3409 106.605 45.8864C108.181 47.4318 108.969 49.4394 108.969 51.9091C108.969 54 108.363 55.8636 107.151 57.5C105.954 59.1212 104.28 60.3939 102.128 61.3182C99.9918 62.2424 97.5145 62.7045 94.6964 62.7045C90.7873 62.7045 87.5979 61.8712 85.1282 60.2045C82.6585 58.5227 81.1433 56.1364 80.5827 53.0455L87.1509 52.0455C87.56 53.7576 88.4009 55.053 89.6736 55.9318C90.9464 56.7955 92.6055 57.2273 94.6509 57.2273C96.8782 57.2273 98.6585 56.7652 99.9918 55.8409C101.325 54.9015 101.992 53.7576 101.992 52.4091C101.992 51.3182 101.583 50.4015 100.765 49.6591C99.9615 48.9167 98.7267 48.3561 97.06 47.9773L91.1509 46.6818C87.8933 45.9394 85.4842 44.7576 83.9236 43.1364C82.3782 41.5152 81.6055 39.4621 81.6055 36.9773C81.6055 34.9167 82.1812 33.1136 83.3327 31.5682C84.4842 30.0227 86.0751 28.8182 88.1055 27.9545C90.1358 27.0758 92.4615 26.6364 95.0827 26.6364C98.8555 26.6364 101.825 27.4545 103.992 29.0909C106.158 30.7121 107.59 32.8864 108.287 35.6136ZM122.016 75.0909C121.001 75.0909 120.077 75.0076 119.243 74.8409C118.41 74.6894 117.789 74.5227 117.38 74.3409L119.016 68.7727C120.259 69.1061 121.365 69.25 122.334 69.2045C123.304 69.1591 124.16 68.7955 124.902 68.1136C125.66 67.4318 126.327 66.3182 126.902 64.7727L127.743 62.4545L114.971 27.0909H122.243L131.084 54.1818H131.448L140.289 27.0909H147.584L133.198 66.6591C132.531 68.4773 131.683 70.0152 130.652 71.2727C129.622 72.5455 128.395 73.5 126.971 74.1364C125.546 74.7727 123.895 75.0909 122.016 75.0909ZM43.7727 110.591H36.6818C36.4091 109.076 35.9015 107.742 35.1591 106.591C34.4167 105.439 33.5076 104.462 32.4318 103.659C31.3561 102.856 30.1515 102.25 28.8182 101.841C27.5 101.432 26.0985 101.227 24.6136 101.227C21.9318 101.227 19.5303 101.902 17.4091 103.25C15.303 104.598 13.6364 106.576 12.4091 109.182C11.197 111.788 10.5909 114.97 10.5909 118.727C10.5909 122.515 11.197 125.712 12.4091 128.318C13.6364 130.924 15.3106 132.894 17.4318 134.227C19.553 135.561 21.9394 136.227 24.5909 136.227C26.0606 136.227 27.4545 136.03 28.7727 135.636C30.1061 135.227 31.3106 134.629 32.3864 133.841C33.4621 133.053 34.3712 132.091 35.1136 130.955C35.8712 129.803 36.3939 128.485 36.6818 127L43.7727 127.023C43.3939 129.311 42.6591 131.417 41.5682 133.341C40.4924 135.25 39.1061 136.902 37.4091 138.295C35.7273 139.674 33.803 140.742 31.6364 141.5C29.4697 142.258 27.1061 142.636 24.5455 142.636C20.5152 142.636 16.9242 141.682 13.7727 139.773C10.6212 137.848 8.13636 135.098 6.31818 131.523C4.51515 127.947 3.61364 123.682 3.61364 118.727C3.61364 113.758 4.52273 109.492 6.34091 105.932C8.15909 102.356 10.6439 99.6136 13.7955 97.7045C16.947 95.7803 20.5303 94.8182 24.5455 94.8182C27.0152 94.8182 29.3182 95.1742 31.4545 95.8864C33.6061 96.5833 35.5379 97.6136 37.25 98.9773C38.9621 100.326 40.3788 101.977 41.5 103.932C42.6212 105.871 43.3788 108.091 43.7727 110.591ZM59.7061 95.4545V142H52.9107V95.4545H59.7061ZM92.2418 127.523V107.091H99.06V142H92.3782V135.955H92.0145C91.2115 137.818 89.9236 139.371 88.1509 140.614C86.3933 141.841 84.2039 142.455 81.5827 142.455C79.3403 142.455 77.3555 141.962 75.6282 140.977C73.9161 139.977 72.5676 138.5 71.5827 136.545C70.613 134.591 70.1282 132.174 70.1282 129.295V107.091H76.9236V128.477C76.9236 130.856 77.5827 132.75 78.9009 134.159C80.2191 135.568 81.9312 136.273 84.0373 136.273C85.31 136.273 86.5751 135.955 87.8327 135.318C89.1055 134.682 90.1585 133.72 90.9918 132.432C91.8403 131.144 92.257 129.508 92.2418 127.523ZM110.016 142V95.4545H116.812V112.75H117.221C117.615 112.023 118.183 111.182 118.925 110.227C119.668 109.273 120.698 108.439 122.016 107.727C123.334 107 125.077 106.636 127.243 106.636C130.062 106.636 132.577 107.348 134.789 108.773C137.001 110.197 138.736 112.25 139.993 114.932C141.266 117.614 141.902 120.841 141.902 124.614C141.902 128.386 141.274 131.621 140.016 134.318C138.759 137 137.031 139.068 134.834 140.523C132.637 141.962 130.13 142.682 127.312 142.682C125.19 142.682 123.456 142.326 122.107 141.614C120.774 140.902 119.728 140.068 118.971 139.114C118.213 138.159 117.63 137.311 117.221 136.568H116.652V142H110.016ZM116.675 124.545C116.675 127 117.031 129.152 117.743 131C118.456 132.848 119.486 134.295 120.834 135.341C122.183 136.371 123.834 136.886 125.789 136.886C127.819 136.886 129.516 136.348 130.88 135.273C132.243 134.182 133.274 132.705 133.971 130.841C134.683 128.977 135.039 126.879 135.039 124.545C135.039 122.242 134.69 120.174 133.993 118.341C133.312 116.508 132.281 115.061 130.902 114C129.539 112.939 127.834 112.409 125.789 112.409C123.819 112.409 122.152 112.917 120.789 113.932C119.44 114.947 118.418 116.364 117.721 118.182C117.024 120 116.675 122.121 116.675 124.545Z" fill="#0033CC"/>
</svg>
