<svg width="60" height="60" viewBox="0 0 60 60" fill="none" xmlns="http://www.w3.org/2000/svg">
<path d="M21.5625 33.75C20.8208 33.75 20.0958 33.5301 19.4791 33.118C18.8624 32.706 18.3818 32.1203 18.098 31.4351C17.8141 30.7498 17.7399 29.9958 17.8846 29.2684C18.0293 28.541 18.3864 27.8728 18.9109 27.3484C19.4353 26.8239 20.1035 26.4667 20.8309 26.3221C21.5584 26.1774 22.3123 26.2516 22.9976 26.5355C23.6828 26.8193 24.2685 27.2999 24.6805 27.9166C25.0926 28.5333 25.3125 29.2583 25.3125 30C25.3125 30.9946 24.9174 31.9484 24.2142 32.6516C23.5109 33.3549 22.5571 33.75 21.5625 33.75ZM38.4375 26.25C37.6958 26.25 36.9708 26.4699 36.3541 26.882C35.7374 27.294 35.2568 27.8797 34.973 28.5649C34.6891 29.2502 34.6149 30.0042 34.7596 30.7316C34.9043 31.459 35.2614 32.1272 35.7859 32.6516C36.3103 33.1761 36.9785 33.5333 37.7059 33.6779C38.4333 33.8226 39.1874 33.7484 39.8726 33.4645C40.5578 33.1807 41.1435 32.7001 41.5555 32.0834C41.9676 31.4667 42.1875 30.7417 42.1875 30C42.1875 29.0054 41.7924 28.0516 41.0892 27.3484C40.3859 26.6451 39.4321 26.25 38.4375 26.25ZM35.0625 37.9336C33.5421 38.876 31.7888 39.3753 30 39.3753C28.2112 39.3753 26.4579 38.876 24.9375 37.9336C24.6251 37.7318 24.2757 37.5939 23.9097 37.528C23.5436 37.4621 23.1681 37.4694 22.8049 37.5496C22.4417 37.6298 22.098 37.7812 21.7937 37.9952C21.4894 38.2091 21.2306 38.4812 21.0322 38.7959C20.8338 39.1105 20.6998 39.4614 20.638 39.8281C20.5761 40.1949 20.5876 40.5703 20.6718 40.9326C20.756 41.2949 20.9112 41.6369 21.1285 41.9388C21.3457 42.2407 21.6207 42.4965 21.9375 42.6914C24.3561 44.2 27.1495 44.9997 30 44.9997C32.8505 44.9997 35.6439 44.2 38.0625 42.6914C38.3793 42.4965 38.6543 42.2407 38.8716 41.9388C39.0888 41.6369 39.244 41.2949 39.3282 40.9326C39.4124 40.5703 39.4239 40.1949 39.3621 39.8281C39.3002 39.4614 39.1662 39.1105 38.9678 38.7959C38.7694 38.4812 38.5106 38.2091 38.2063 37.9952C37.902 37.7812 37.5583 37.6298 37.1951 37.5496C36.8319 37.4694 36.4564 37.4621 36.0904 37.528C35.7243 37.5939 35.3749 37.7318 35.0625 37.9336ZM55.3125 30C55.3125 35.0063 53.828 39.9003 51.0466 44.0629C48.2652 48.2255 44.3119 51.4699 39.6867 53.3857C35.0614 55.3015 29.9719 55.8028 25.0618 54.8261C20.1516 53.8494 15.6414 51.4387 12.1014 47.8986C8.56136 44.3586 6.15057 39.8484 5.17388 34.9382C4.1972 30.0281 4.69847 24.9386 6.61431 20.3133C8.53015 15.6881 11.7745 11.7348 15.9371 8.95343C20.0998 6.17205 24.9937 4.6875 30 4.6875C36.711 4.69494 43.145 7.36418 47.8904 12.1096C52.6358 16.855 55.3051 23.289 55.3125 30ZM49.6875 30C49.6807 25.0212 47.7901 20.2294 44.3954 16.5873C41.0007 12.9453 36.3535 10.7228 31.3875 10.3664C29.2055 13.6687 29.0695 16.6945 29.0625 16.8891C29.0644 17.1377 29.1649 17.3754 29.3421 17.5499C29.5192 17.7244 29.7584 17.8214 30.007 17.8195C30.2557 17.8177 30.4934 17.7171 30.6679 17.54C30.8424 17.3628 30.9394 17.1236 30.9375 16.875C30.9375 16.1291 31.2338 15.4137 31.7613 14.8863C32.2887 14.3588 33.0041 14.0625 33.75 14.0625C34.4959 14.0625 35.2113 14.3588 35.7387 14.8863C36.2662 15.4137 36.5625 16.1291 36.5625 16.875C36.5625 18.6155 35.8711 20.2847 34.6404 21.5154C33.4097 22.7461 31.7405 23.4375 30 23.4375C28.2595 23.4375 26.5903 22.7461 25.3596 21.5154C24.1289 20.2847 23.4375 18.6155 23.4375 16.875C23.4375 16.7227 23.4609 14.2523 24.7313 11.0344C21.1979 12.0158 18.0089 13.9645 15.5235 16.661C13.0382 19.3575 11.3554 22.6945 10.6648 26.296C9.97417 29.8976 10.3032 33.6204 11.6147 37.0449C12.9262 40.4695 15.1682 43.4597 18.0879 45.6786C21.0076 47.8974 24.489 49.2567 28.1397 49.6032C31.7904 49.9497 35.4653 49.2697 38.7503 47.6398C42.0354 46.0099 44.7998 43.4949 46.7323 40.3782C48.6647 37.2616 49.6882 33.6671 49.6875 30Z" fill="#0033CC"/>
</svg>
